<?xml version="1.0" standalone="no"?>
<!DOCTYPE svg PUBLIC "-//W3C//DTD SVG 20010904//EN"
 "http://www.w3.org/TR/2001/REC-SVG-20010904/DTD/svg10.dtd">
<svg version="1.0" xmlns="http://www.w3.org/2000/svg"
 width="972.000000pt" height="972.000000pt" viewBox="0 0 972.000000 972.000000"
 preserveAspectRatio="xMidYMid meet">
<metadata>
Created by potrace 1.11, written by Peter Selinger 2001-2013
</metadata>
<g transform="translate(0.000000,972.000000) scale(0.100000,-0.100000)"
fill="#000000" stroke="none">
<path d="M4360 8750 c0 -5 5 -10 10 -10 6 0 10 5 10 10 0 6 -4 10 -10 10 -5 0
-10 -4 -10 -10z"/>
<path d="M3756 8475 c-3 -8 -17 -15 -31 -15 -28 0 -32 -9 -12 -29 10 -10 7
-10 -13 -3 -14 5 -25 16 -25 23 0 13 -6 15 -36 11 -5 -1 -8 -6 -5 -11 3 -5 -1
-11 -9 -15 -8 -3 -17 -1 -21 5 -4 6 -13 4 -26 -7 -16 -16 -21 -16 -29 -4 -8
13 -10 13 -19 0 -5 -8 -8 -21 -5 -27 2 -7 0 -13 -5 -13 -6 0 -10 7 -10 15 0 8
-9 15 -19 15 -11 0 -28 3 -38 7 -16 6 -16 5 -4 -10 11 -14 11 -17 -1 -17 -8 0
-19 5 -26 12 -8 8 -12 8 -12 1 0 -6 7 -16 15 -23 8 -7 15 -16 15 -21 0 -5 -7
-9 -15 -9 -8 0 -15 -9 -15 -20 0 -12 -5 -17 -14 -14 -8 3 -22 -8 -34 -28 -12
-19 -31 -45 -42 -58 -12 -14 -30 -43 -40 -66 -22 -47 -45 -70 -55 -54 -3 5 -1
10 4 10 6 0 11 5 11 11 0 8 -4 8 -15 -1 -12 -10 -18 -9 -32 6 -22 21 -23 45
-3 60 11 10 12 15 2 27 -10 12 -8 16 10 21 17 6 19 9 8 13 -8 3 -19 12 -23 20
-11 18 -48 -2 -41 -22 4 -9 0 -15 -10 -15 -9 0 -16 -6 -16 -14 0 -9 -8 -12
-25 -8 -25 4 -35 -12 -12 -21 9 -4 9 -6 -1 -6 -22 -2 -62 -53 -62 -80 0 -14
-10 -37 -22 -51 -13 -14 -30 -38 -38 -54 -8 -15 -25 -32 -38 -37 -12 -5 -25
-17 -29 -26 -3 -10 -16 -31 -27 -48 -12 -16 -21 -41 -21 -55 0 -15 -5 -24 -13
-22 -18 3 -26 -26 -12 -43 10 -12 10 -15 0 -15 -21 0 -39 -32 -40 -68 0 -26
-5 -35 -21 -39 -14 -4 -19 -12 -16 -24 3 -10 -1 -23 -9 -30 -8 -6 -14 -15 -14
-20 0 -4 -5 -20 -12 -36 -6 -15 -12 -35 -14 -43 -26 -134 -36 -235 -35 -342 1
-27 -3 -48 -8 -48 -6 0 -10 -17 -9 -38 0 -22 -3 -49 -7 -62 -5 -14 -3 -25 6
-30 10 -7 10 -11 0 -24 -10 -12 -9 -17 8 -28 12 -7 21 -21 21 -32 0 -14 6 -17
25 -14 40 8 30 -17 -15 -37 -22 -10 -40 -21 -40 -24 0 -3 -11 -19 -25 -35 -29
-34 -30 -37 -10 -30 8 3 17 14 20 25 7 21 20 25 30 9 3 -5 -3 -18 -15 -30 -11
-11 -20 -25 -20 -31 0 -6 -6 -9 -14 -6 -19 8 -50 -28 -40 -45 14 -22 13 -39
-2 -45 -8 -3 -11 -9 -8 -14 3 -5 -2 -6 -10 -3 -9 3 -17 -2 -20 -14 -4 -11 -13
-23 -21 -26 -22 -8 -18 -26 6 -26 15 0 19 -4 15 -16 -3 -9 -6 -18 -6 -20 0 -3
-13 9 -30 26 -36 37 -42 38 -34 5 5 -19 2 -25 -11 -25 -11 0 -15 -5 -11 -15 3
-9 -1 -18 -9 -22 -20 -7 0 -33 26 -33 23 0 35 20 18 31 -7 4 -10 11 -6 15 9
10 37 -26 36 -46 -3 -39 2 -60 14 -60 8 0 13 -18 13 -52 1 -29 3 -79 4 -111 2
-38 -1 -62 -9 -66 -7 -4 -11 -14 -9 -22 2 -7 -6 -14 -17 -16 -11 -1 -27 -3
-35 -4 -32 -4 -50 2 -50 16 0 8 -8 15 -18 15 -23 0 -94 49 -87 60 7 11 -49 66
-75 73 -25 6 -84 -39 -76 -59 3 -7 -1 -20 -9 -28 -8 -8 -15 -19 -15 -25 0 -6
-4 -11 -10 -11 -5 0 -10 -14 -10 -30 0 -19 -5 -29 -12 -28 -8 2 -12 -6 -10
-21 1 -14 -2 -27 -6 -30 -12 -8 -52 -135 -52 -166 0 -14 -4 -25 -10 -25 -5 0
-10 -15 -10 -32 0 -18 -7 -68 -15 -111 -22 -114 -20 -173 5 -180 10 -3 21 0
24 7 3 6 3 0 -1 -14 -3 -14 -6 -31 -6 -37 0 -7 -3 -13 -7 -13 -3 0 -7 -19 -9
-42 -8 -106 -10 -135 -16 -168 -3 -19 -5 -54 -5 -77 0 -24 -4 -43 -10 -43 -5
0 -10 -4 -10 -10 0 -5 6 -10 13 -10 7 0 21 -18 31 -40 10 -22 24 -40 33 -40
13 0 13 -3 3 -15 -10 -12 -9 -16 3 -21 9 -3 19 -20 22 -37 15 -78 30 -132 38
-138 5 -3 8 -8 6 -10 -1 -2 1 -14 5 -27 l8 -23 19 25 c15 18 19 40 19 93 0 42
-4 63 -9 54 -11 -17 -23 1 -15 22 3 10 -4 17 -22 21 -20 5 -24 10 -15 15 20
13 4 52 -17 44 -14 -6 -15 -4 -5 8 7 9 8 20 3 29 -5 8 -6 18 -4 22 9 14 34 9
34 -7 0 -8 7 -15 15 -15 8 0 15 -5 15 -11 0 -5 16 -17 35 -25 19 -8 35 -18 35
-22 0 -10 55 -30 100 -36 44 -5 70 -16 70 -27 0 -5 7 -9 16 -9 12 0 15 -6 10
-24 -3 -14 -1 -28 5 -32 6 -3 9 -14 6 -24 -6 -23 46 -56 61 -37 17 21 24 81
12 111 -8 22 -8 31 1 37 8 4 6 10 -7 18 -13 7 -15 10 -5 11 11 0 12 3 4 11
-12 12 -6 78 8 94 5 5 9 16 9 25 0 8 23 34 50 58 28 24 48 47 45 51 -2 5 4 16
15 26 11 10 20 24 20 32 0 7 7 13 15 13 8 0 15 5 15 10 0 6 6 10 14 10 7 0 19
14 26 30 7 17 16 30 21 30 5 0 9 7 9 15 0 8 4 15 9 15 14 0 23 32 11 44 -15
15 -12 26 5 20 8 -4 15 -1 15 5 0 6 -4 11 -10 11 -5 0 -10 7 -10 15 0 8 6 15
13 15 7 0 14 8 15 18 1 9 3 28 4 42 4 31 38 76 58 75 19 -1 59 44 60 67 0 11
5 15 15 12 10 -4 15 0 15 15 0 11 14 35 31 52 17 18 24 29 15 26 -9 -4 -16 -3
-16 1 0 4 22 18 50 31 46 22 49 25 43 54 -5 26 -4 30 14 25 22 -6 46 9 56 35
4 10 11 15 17 12 5 -3 10 -1 10 4 0 6 14 11 30 11 17 0 30 5 30 10 0 6 9 10
20 10 13 0 18 5 14 15 -4 8 -10 12 -15 10 -4 -3 -7 8 -6 25 1 16 7 30 14 30 7
0 10 -7 6 -15 -3 -9 2 -22 13 -30 18 -15 18 -15 -2 -33 -17 -14 -18 -20 -8
-30 19 -18 21 -16 28 33 8 48 20 58 29 23 5 -18 8 -19 22 -8 14 12 18 11 25 0
5 -8 12 -11 16 -7 12 12 -18 38 -37 32 -23 -7 -26 13 -4 21 8 4 15 13 15 21 0
12 3 13 15 3 17 -14 36 -5 28 15 -3 8 0 15 6 15 6 0 11 -7 11 -15 0 -8 5 -15
10 -15 11 0 13 11 4 34 -8 21 -54 21 -54 0 0 -8 -4 -13 -9 -10 -5 3 -9 17 -8
32 0 18 3 22 10 15 17 -17 27 -13 27 9 0 12 7 20 17 20 13 0 14 -3 5 -12 -18
-18 -14 -26 12 -21 29 6 24 40 -8 53 -19 8 -19 9 7 9 29 1 35 19 15 39 -9 9
-9 15 -2 20 5 4 11 21 12 37 1 17 7 32 12 33 6 2 10 8 10 14 0 5 -9 6 -20 3
-11 -4 -20 -2 -20 4 0 19 -18 12 -25 -9 -9 -27 -25 -16 -25 17 0 21 -2 23 -15
13 -8 -7 -20 -8 -27 -4 -7 5 -22 9 -32 9 -11 0 -21 6 -23 13 -6 15 13 16 22 2
5 -8 11 -8 20 0 7 6 33 9 59 7 38 -4 44 -2 35 9 -6 8 -16 11 -22 7 -6 -4 -8 0
-4 9 9 24 -4 30 -29 14 -20 -14 -24 -13 -39 4 -23 25 -47 25 -76 0 -21 -18
-22 -21 -8 -32 8 -7 18 -22 22 -32 6 -15 5 -17 -6 -8 -8 7 -17 8 -21 4 -4 -4
-6 -1 -4 7 2 10 -8 17 -27 22 -24 5 -25 7 -7 8 12 0 22 7 22 15 0 8 7 17 15
20 9 3 15 13 13 23 -2 11 6 19 21 23 27 6 41 30 18 30 -8 0 -17 7 -21 15 -3 8
0 14 7 12 7 -1 11 7 9 21 -2 16 2 22 17 22 14 0 19 5 15 14 -7 19 13 56 31 56
8 0 15 6 15 13 0 14 31 47 40 44 3 -1 22 16 41 38 39 43 54 81 35 89 -6 3 2 2
18 -1 22 -4 28 -2 24 8 -2 8 -14 18 -26 24 -25 11 -28 20 -10 31 6 4 17 -1 24
-11 16 -22 30 -13 19 12 -5 10 -7 24 -6 31 1 6 -3 12 -9 12 -5 0 -10 7 -10 15
0 8 7 15 16 15 9 0 13 -5 9 -12 -4 -7 3 -2 14 12 20 25 25 36 22 54 -1 5 6 6
14 2 27 -10 38 4 20 24 -11 12 -13 20 -6 25 6 3 11 -1 11 -11 0 -14 2 -14 16
-3 10 8 12 15 5 17 -6 2 -11 10 -11 18 0 9 5 12 10 9 6 -3 13 1 16 9 3 9 10
13 15 10 13 -8 10 18 -4 37 -7 9 -17 14 -24 12 -7 -3 -20 0 -29 5 -15 8 -14
11 5 29 30 28 19 53 -21 48 -23 -3 -28 -1 -24 11 3 9 6 18 6 20 0 3 4 3 9 -1
5 -3 16 3 23 12 7 10 30 27 51 37 44 23 51 50 10 40 l-28 -7 25 25 c14 14 38
39 53 56 l28 31 -33 -11 c-18 -6 -39 -15 -46 -21 -21 -17 -24 -1 -5 32 10 17
25 31 33 31 8 0 26 14 40 30 14 17 30 30 36 30 7 0 15 11 18 24 3 14 16 28 28
32 21 6 21 7 3 20 -16 12 -16 16 -4 30 12 15 11 16 -10 9 -21 -6 -23 -5 -18
14 4 17 -4 12 -34 -19 -21 -22 -39 -45 -39 -50 0 -6 -8 -10 -18 -10 -10 0 -44
-18 -76 -40 -59 -42 -72 -47 -78 -30 -5 16 -76 -21 -83 -44 -6 -21 -6 -21 -14
-1 -11 27 -9 41 6 37 7 -2 13 2 13 8 0 5 -4 10 -10 10 -18 0 -11 16 20 46 16
16 30 34 30 40 0 6 7 17 15 24 9 7 14 19 11 27 -3 8 -1 11 4 8 18 -11 32 6 18
23 -11 14 -10 15 5 9 13 -5 17 -3 15 5 -3 7 -14 14 -25 16 -12 2 -24 10 -27
18 -4 11 -2 12 14 4 24 -13 27 -13 33 4 4 10 1 13 -9 9 -27 -10 -14 18 29 61
23 24 51 46 62 50 11 3 35 25 54 49 19 23 28 36 21 30 -8 -7 -31 -13 -51 -13
-21 0 -40 -6 -42 -12 -4 -8 -8 -4 -12 10 -4 12 -14 22 -22 22 -8 0 -11 5 -8
11 4 6 9 8 12 5 7 -7 53 45 53 60 0 7 9 14 20 17 12 3 20 14 20 26 0 28 25 37
45 17 20 -20 45 -21 45 -2 0 8 8 15 18 15 74 3 142 22 153 42 5 11 15 17 20
13 18 -10 59 6 59 23 0 13 3 14 11 6 8 -8 20 -6 44 7 19 10 50 22 69 26 20 3
43 15 50 26 8 11 19 17 24 14 6 -3 25 7 43 23 l33 30 -65 -4 c-35 -2 -97 -10
-136 -18 -40 -8 -73 -13 -73 -10 0 2 -14 -5 -30 -17 -17 -12 -37 -23 -45 -24
-8 -1 -18 -5 -21 -9 -4 -4 -17 -7 -29 -7 -13 0 -28 -7 -35 -15 -7 -8 -16 -12
-21 -9 -5 3 -23 -1 -39 -10 -28 -13 -30 -13 -30 4 0 10 5 22 11 25 6 4 8 12 6
19 -3 7 6 22 18 34 14 13 25 18 27 11 5 -14 78 15 78 30 0 6 6 8 14 5 16 -6
58 25 50 37 -6 10 -75 -1 -91 -14 -7 -5 -10 -14 -6 -21 3 -6 3 -8 -2 -4 -4 4
-14 3 -21 -3 -7 -6 -14 -6 -18 -1 -3 6 1 12 9 16 8 3 15 10 15 16 0 14 -33 13
-48 -2 -9 -9 -13 -7 -18 5 -8 21 -20 22 -28 2z m-90 -102 c-10 -10 -33 22 -28
40 4 15 7 14 18 -9 8 -15 12 -29 10 -31z m94 -24 c0 -5 -7 -9 -15 -9 -8 0 -15
-7 -15 -16 0 -8 -4 -12 -10 -9 -6 4 -4 15 6 30 15 23 34 26 34 4z m-70 -19 c0
-5 -7 -10 -15 -10 -8 0 -15 -4 -15 -10 0 -5 -8 -10 -17 -10 -15 0 -13 4 7 20
28 22 40 25 40 10z m60 -45 c16 -19 1 -19 -24 0 -16 12 -17 15 -4 15 8 0 21
-7 28 -15z m-559 -155 c23 -13 25 -30 4 -30 -8 0 -15 4 -15 9 0 5 -9 7 -20 4
-14 -4 -20 0 -20 11 0 18 22 21 51 6z m4 -80 c3 -5 1 -10 -4 -10 -6 0 -11 5
-11 10 0 6 2 10 4 10 3 0 8 -4 11 -10z m390 1 c7 -12 -12 -24 -25 -16 -11 7
-4 25 10 25 5 0 11 -4 15 -9z m-415 -5 c0 -2 -7 -7 -16 -10 -8 -3 -12 -2 -9 4
6 10 25 14 25 6z m-30 -46 c0 -5 -4 -10 -9 -10 -6 0 -13 5 -16 10 -3 6 1 10 9
10 9 0 16 -4 16 -10z m-55 -10 c3 -5 1 -10 -4 -10 -6 0 -11 5 -11 10 0 6 2 10
4 10 3 0 8 -4 11 -10z m121 -56 c-4 -9 -9 -15 -11 -12 -3 3 -3 13 1 22 4 9 9
15 11 12 3 -3 3 -13 -1 -22z m-99 -35 c0 -34 -6 -48 -38 -81 -21 -22 -43 -37
-48 -33 -14 8 -38 -15 -42 -40 -2 -10 -10 -20 -17 -23 -11 -3 -12 8 -7 54 4
33 12 62 17 65 6 4 14 22 18 40 7 32 8 32 9 7 1 -38 21 -36 21 2 0 22 5 30 18
30 9 0 26 7 36 15 26 20 33 12 33 -36z m403 1 c0 -5 -4 -10 -10 -10 -5 0 -10
5 -10 10 0 6 5 10 10 10 6 0 10 -4 10 -10z m-606 -89 c3 -5 -1 -14 -8 -20 -16
-13 -32 2 -21 19 8 12 22 13 29 1z m546 -27 c0 -8 -4 -14 -10 -14 -5 0 -10 9
-10 21 0 11 5 17 10 14 6 -3 10 -13 10 -21z m-562 -40 c-3 -26 -31 -54 -43
-43 -7 8 24 69 36 69 6 0 9 -12 7 -26z m287 -4 c3 -5 1 -10 -4 -10 -6 0 -11 5
-11 10 0 6 2 10 4 10 3 0 8 -4 11 -10z m-114 -53 c-10 -9 -11 -8 -5 6 3 10 9
15 12 12 3 -3 0 -11 -7 -18z m599 -47 c-11 -20 -30 -28 -30 -12 0 11 22 32 32
32 5 0 4 -9 -2 -20z m-50 -30 c0 -9 -32 -30 -46 -30 -4 0 1 9 11 20 19 21 35
26 35 10z m-467 -12 c2 -7 -4 -20 -15 -29 -15 -14 -16 -21 -6 -50 6 -19 16
-37 21 -40 11 -8 -20 -27 -73 -46 -34 -12 -49 -6 -50 21 0 4 -7 6 -15 2 -11
-4 -15 1 -15 19 0 32 20 43 37 19 12 -17 13 -15 9 19 -5 35 5 49 19 27 9 -14
28 -13 23 1 -4 11 39 65 54 68 3 0 8 -5 11 -11z m258 -28 c11 0 18 -4 15 -8
-8 -13 -60 -6 -64 8 -3 9 1 11 12 7 10 -4 27 -7 37 -7z m119 -10 c0 -5 -8 -10
-17 -10 -15 0 -16 2 -3 10 19 12 20 12 20 0z m-500 -151 c0 -5 3 -8 8 -8 22 4
23 -4 3 -25 -13 -14 -21 -31 -18 -38 4 -9 6 -7 6 5 1 20 15 22 32 4 7 -7 28
-11 50 -9 24 3 39 0 39 -7 0 -6 -9 -11 -20 -11 -14 0 -20 -7 -20 -21 0 -17 3
-19 14 -10 10 9 15 8 20 -4 3 -8 0 -15 -7 -15 -7 0 -21 -10 -32 -22 -12 -14
-20 -18 -23 -10 -6 18 -59 -26 -67 -55 -4 -18 -9 -22 -18 -14 -8 6 -18 6 -27
1 -9 -5 -19 -5 -27 2 -7 5 -20 8 -28 4 -12 -4 -19 3 -27 24 -10 31 -22 38 -33
20 -8 -13 -35 -13 -35 -1 0 16 34 45 38 32 2 -6 9 -11 15 -11 5 0 7 3 4 7 -4
3 -2 13 5 20 9 11 9 17 -3 25 -10 7 -7 8 14 5 19 -3 27 -1 24 7 -3 7 16 25 41
41 44 28 45 30 21 36 -23 7 -23 7 5 8 22 1 26 4 18 14 -8 10 -6 13 9 14 10 1
19 -2 19 -8z m470 -396 c0 -3 -7 -3 -15 1 -8 3 -15 1 -15 -4 0 -6 -5 -10 -11
-10 -8 0 -8 4 1 14 10 13 40 12 40 -1z m-50 -30 c0 -14 -19 -38 -25 -32 -8 8
5 39 16 39 5 0 9 -3 9 -7z m-687 -53 c-3 -11 -9 -20 -15 -20 -5 0 -4 9 2 20 6
11 12 20 14 20 2 0 2 -9 -1 -20z m687 -40 c0 -5 -7 -10 -16 -10 -8 0 -12 5 -9
10 3 6 10 10 16 10 5 0 9 -4 9 -10z m-760 -54 c0 -3 -4 -8 -10 -11 -5 -3 -10
-1 -10 4 0 6 5 11 10 11 6 0 10 -2 10 -4z m627 -321 c2 -5 -8 -10 -22 -10 -14
0 -25 6 -25 13 0 15 42 13 47 -3z m-767 -62 c0 -13 -3 -13 -15 -3 -8 7 -15 16
-15 21 0 5 7 6 15 3 8 -4 15 -13 15 -21z m880 -53 c0 -5 -4 -10 -10 -10 -5 0
-10 5 -10 10 0 6 5 10 10 10 6 0 10 -4 10 -10z m-15 -100 c3 -5 1 -10 -4 -10
-6 0 -11 5 -11 10 0 6 2 10 4 10 3 0 8 -4 11 -10z m-85 -118 c0 -5 -7 -9 -15
-9 -8 0 -12 4 -9 9 3 4 9 8 15 8 5 0 9 -4 9 -8z m-1100 -472 c0 -5 7 -7 15 -4
12 5 14 0 9 -27 -4 -19 -10 -39 -15 -44 -4 -6 -9 -23 -11 -39 -2 -16 -13 -41
-25 -54 -13 -14 -23 -31 -23 -38 0 -8 -4 -14 -9 -14 -5 0 -15 -16 -21 -35 -6
-19 -16 -35 -21 -35 -6 0 -7 -9 -4 -21 5 -15 4 -19 -4 -15 -6 4 -14 0 -17 -8
-12 -31 -19 -15 -15 32 2 26 8 52 13 59 5 7 7 17 3 23 -3 5 -2 10 2 10 5 0 14
20 21 45 7 25 23 64 37 86 14 22 30 51 35 64 9 24 30 35 30 15z m365 -91 c11
-17 -1 -21 -15 -4 -8 9 -8 15 -2 15 6 0 14 -5 17 -11z m-488 -294 c0 -8 -4
-15 -9 -15 -4 0 -8 7 -8 15 0 8 4 15 8 15 5 0 9 -7 9 -15z"/>
<path d="M3360 8365 c-17 -21 -5 -31 15 -12 8 9 15 18 15 21 0 11 -18 6 -30
-9z"/>
<path d="M3222 8340 c0 -14 2 -19 5 -12 2 6 2 18 0 25 -3 6 -5 1 -5 -13z"/>
<path d="M7010 8026 c0 -2 7 -6 15 -10 8 -3 15 -1 15 4 0 6 -7 10 -15 10 -8 0
-15 -2 -15 -4z"/>
<path d="M7075 7930 c-3 -11 -13 -20 -21 -20 -8 0 -14 -7 -14 -15 0 -8 6 -15
14 -15 9 0 12 -7 9 -20 -4 -16 -2 -19 11 -14 10 4 16 1 16 -9 0 -8 7 -17 15
-21 8 -3 12 -12 9 -20 -4 -11 4 -17 30 -21 20 -4 33 -11 31 -16 -3 -4 -13 -5
-21 -2 -12 4 -15 1 -12 -13 4 -21 37 -32 47 -15 4 6 12 2 20 -11 12 -19 11
-20 -13 -14 -25 6 -36 -6 -17 -18 5 -3 7 -15 4 -26 -4 -16 0 -20 21 -20 14 0
26 -4 26 -10 0 -5 7 -10 16 -10 11 0 14 5 10 16 -5 12 -2 15 10 10 8 -3 20 -6
25 -6 5 0 9 -4 9 -10 0 -5 -7 -10 -15 -10 -21 0 -19 -13 5 -28 11 -7 20 -17
20 -24 0 -6 -7 -4 -18 5 -10 10 -24 17 -30 17 -23 0 -27 -94 -6 -124 8 -11 14
-30 14 -42 0 -12 6 -24 14 -27 9 -4 12 -14 9 -26 -3 -13 -1 -21 6 -21 7 0 10
-4 6 -10 -3 -5 2 -26 11 -47 8 -21 17 -51 18 -66 1 -16 8 -32 16 -37 13 -8 22
-92 23 -207 0 -36 4 -53 13 -53 9 0 10 -8 4 -30 -5 -17 -5 -30 0 -30 7 0 7
-33 0 -80 0 -3 -4 1 -8 7 -6 9 -12 8 -25 -7 -11 -13 -13 -22 -5 -26 5 -4 14 0
19 7 7 11 9 10 9 -3 0 -10 -4 -18 -9 -18 -14 0 -23 -32 -11 -44 7 -7 10 -4 10
8 0 10 5 16 11 14 6 -2 10 -7 10 -11 -1 -4 -1 -14 -1 -22 0 -17 -35 -21 -45
-5 -4 6 -11 7 -17 4 -6 -4 0 -12 15 -20 21 -12 24 -18 18 -41 -5 -18 -14 -28
-27 -28 -24 0 -44 -24 -36 -44 3 -9 1 -12 -7 -7 -17 11 -4 45 28 72 14 12 22
26 18 31 -5 4 -13 0 -19 -10 -9 -18 -11 -18 -29 -1 -20 18 -27 6 -8 -13 16
-16 2 -33 -27 -33 -13 0 -24 -6 -24 -12 -1 -7 -7 2 -15 21 -13 28 -17 31 -30
21 -13 -11 -15 -8 -16 21 0 31 -1 32 -11 12 -6 -11 -22 -23 -37 -26 -32 -6
-38 -2 -21 18 10 13 6 14 -32 11 -25 -2 -54 -9 -66 -15 -27 -15 -42 -14 -37 2
2 6 -2 21 -11 32 -11 15 -17 17 -23 7 -10 -17 -41 -4 -41 18 0 35 -45 57 -76
37 -7 -4 -14 1 -17 13 -3 12 -14 20 -26 20 -25 0 -28 15 -5 28 13 7 11 11 -11
26 -20 13 -30 15 -38 7 -14 -14 -44 -14 -53 1 -4 7 -3 8 5 4 6 -4 19 -5 30 -1
22 7 18 46 -8 68 -21 19 -59 27 -63 15 -2 -6 -11 -4 -20 5 -8 9 -18 14 -21 11
-6 -7 -47 18 -47 28 0 4 7 5 15 2 11 -4 13 -2 9 9 -3 8 -14 17 -25 20 -11 3
-19 14 -19 27 0 17 -3 20 -13 12 -8 -7 -17 -7 -30 2 -23 18 -22 25 4 19 16 -4
20 -2 17 8 -3 8 -15 13 -27 12 -11 -2 -21 1 -21 5 0 4 -14 22 -30 41 -29 33
-31 33 -45 15 -13 -17 -14 -17 -15 -1 0 9 -7 17 -15 17 -9 0 -12 6 -9 15 4 9
-1 18 -10 21 -21 8 -35 -4 -17 -15 18 -11 3 -34 -17 -26 -8 3 -19 0 -24 -7 -6
-10 -14 -6 -29 15 -16 21 -24 25 -34 17 -9 -7 -15 -8 -19 -1 -8 12 25 31 53
31 28 0 27 14 -2 29 -18 9 -22 20 -22 51 1 44 -5 49 -26 23 -11 -13 -11 -17
-1 -20 17 -6 15 -23 -3 -23 -11 0 -15 12 -15 45 0 33 -4 45 -15 45 -7 0 -19 8
-25 18 -7 11 -13 13 -16 6 -8 -20 -43 -3 -52 25 -9 26 -9 26 -16 4 -4 -13 -11
-23 -16 -23 -5 0 -7 -21 -5 -46 3 -31 0 -50 -9 -60 -11 -10 -17 -11 -22 -3 -3
6 0 15 7 20 19 11 5 22 -20 14 -11 -3 -22 -18 -26 -36 -4 -16 -11 -26 -16 -23
-6 3 -16 1 -23 -5 -7 -6 -21 -9 -30 -5 -11 4 -16 1 -16 -10 0 -9 -6 -16 -12
-16 -9 0 -8 -4 2 -11 11 -7 5 -8 -23 -3 -38 6 -73 -9 -61 -27 3 -5 0 -9 -5 -9
-6 0 -11 -10 -11 -22 -1 -22 -1 -22 -15 3 -15 27 -46 43 -79 39 -10 -1 -23 4
-27 12 -7 10 -9 10 -9 -2 0 -9 7 -26 16 -38 8 -12 11 -22 5 -22 -5 0 -11 6
-14 13 -3 9 -9 9 -25 0 -17 -10 -21 -9 -25 9 -4 15 -11 19 -24 14 -10 -4 -31
-10 -46 -13 -23 -5 -29 -2 -34 16 -6 25 -7 25 -36 7 -12 -8 -39 -18 -59 -21
-34 -7 -38 -5 -38 14 l0 21 -41 -20 c-32 -17 -38 -24 -29 -35 9 -11 7 -18 -9
-34 -12 -12 -21 -25 -21 -30 0 -6 -15 -7 -33 -4 -23 3 -39 0 -49 -10 -8 -9
-28 -17 -44 -19 -19 -2 -30 -10 -32 -22 -3 -14 0 -17 12 -13 8 3 18 2 21 -3 4
-6 -3 -10 -14 -10 -14 0 -21 -6 -21 -19 0 -21 -23 -32 -70 -33 -16 -1 -30 -5
-30 -10 0 -5 -9 -6 -20 -3 -14 5 -20 2 -20 -9 0 -9 6 -16 13 -16 8 0 7 -4 -3
-10 -8 -5 -23 -7 -32 -4 -25 8 -36 -36 -12 -53 17 -12 17 -13 -3 -13 -12 0
-24 6 -26 13 -3 6 -6 0 -6 -15 -1 -21 -6 -28 -20 -28 -11 0 -23 -5 -26 -10 -4
-6 -10 -8 -15 -5 -5 3 -7 -3 -5 -14 2 -11 -3 -25 -11 -32 -11 -9 -14 -9 -14 1
0 8 -8 10 -21 7 -15 -4 -19 -2 -15 9 3 8 1 14 -3 14 -5 0 -11 -6 -13 -12 -4
-10 -9 -9 -20 3 -11 10 -38 16 -84 17 -63 2 -67 1 -48 -14 19 -15 18 -15 -4
-11 -15 4 -27 -2 -37 -16 -13 -19 -17 -20 -25 -7 -9 13 -10 13 -10 -1 0 -29
-83 -88 -96 -68 -10 18 -24 -11 -24 -52 0 -38 -18 -62 -41 -57 -9 2 -13 -5
-11 -19 3 -18 0 -21 -14 -16 -13 5 -15 2 -9 -17 5 -16 4 -21 -6 -18 -8 3 -13
12 -11 22 2 9 -2 16 -8 16 -5 0 -10 -6 -10 -14 0 -8 -5 -18 -12 -22 -8 -5 -9
-2 -5 9 5 14 2 15 -19 7 -17 -7 -32 -6 -45 0 -11 6 -24 8 -29 5 -5 -3 -11 -1
-15 5 -3 5 -15 10 -26 10 -13 0 -18 4 -13 12 4 7 3 8 -5 4 -6 -4 -18 -2 -26 4
-12 10 -17 7 -26 -16 -11 -29 -11 -29 -20 -6 -4 12 -11 22 -14 22 -3 0 -3 -10
0 -22 4 -18 -1 -27 -25 -40 -17 -10 -37 -15 -45 -12 -22 9 -18 -9 5 -24 12 -7
26 -25 32 -40 13 -30 18 -113 6 -106 -21 13 -13 -20 14 -62 37 -57 45 -64 75
-64 12 0 40 -18 62 -40 22 -22 50 -40 62 -40 16 0 20 -5 16 -20 -3 -10 1 -27
9 -37 7 -10 14 -13 14 -6 0 6 -5 15 -10 18 -6 4 -7 11 -4 17 5 7 12 4 21 -8 8
-10 17 -18 21 -16 4 1 7 -4 7 -10 0 -7 11 -12 23 -11 13 2 25 -4 28 -12 7 -17
-17 -75 -31 -75 -5 0 -2 -5 9 -11 14 -9 20 -8 27 2 7 12 9 12 9 0 0 -8 -7 -19
-16 -26 -13 -9 -8 -11 30 -9 37 2 52 -2 77 -23 18 -15 54 -31 85 -37 30 -6 55
-15 55 -21 2 -25 21 -46 38 -40 10 3 27 -3 40 -14 13 -11 28 -22 34 -25 9 -5
9 -8 0 -12 -18 -8 -16 -31 3 -38 12 -5 14 -10 5 -20 -6 -7 -8 -16 -4 -19 3 -4
-3 -7 -15 -7 -12 0 -22 -5 -22 -11 0 -6 9 -9 20 -6 22 6 48 -27 30 -38 -6 -4
-5 -13 2 -25 15 -23 4 -37 -15 -21 -22 18 -177 6 -229 -17 -41 -19 -84 -22
-107 -7 -6 3 -11 1 -11 -5 0 -7 -26 -9 -75 -6 -63 3 -74 1 -64 -10 9 -11 8
-14 -5 -14 -9 0 -16 4 -16 9 0 8 -23 6 -77 -5 -13 -2 -23 -11 -23 -19 0 -8 -4
-15 -10 -15 -5 0 -10 4 -10 9 0 4 -11 6 -25 3 -14 -2 -25 -8 -25 -12 0 -12
-58 -18 -69 -7 -5 5 -15 6 -22 1 -7 -4 -32 -7 -56 -5 -26 1 -43 -2 -43 -8 0
-6 -4 -11 -10 -11 -5 0 -10 5 -10 11 0 20 -42 51 -54 39 -17 -17 -29 -11 -23
10 5 20 -7 28 -17 11 -7 -11 -65 16 -72 33 -3 9 -20 10 -54 6 -27 -4 -54 -2
-59 3 -5 5 -9 -9 -9 -34 -1 -27 -7 -48 -16 -55 -9 -6 -16 -16 -16 -22 0 -18
-20 -25 -35 -12 -12 10 -17 7 -27 -16 -6 -16 -11 -41 -10 -56 0 -18 -5 -28
-14 -28 -8 0 -14 -5 -14 -10 0 -6 -11 -15 -25 -20 -14 -5 -25 -17 -24 -27 0
-11 3 -13 6 -5 7 19 25 14 19 -5 -3 -10 -1 -25 4 -33 9 -13 11 -13 20 0 8 13
10 12 10 -2 0 -10 5 -18 11 -18 5 0 7 -5 3 -12 -5 -7 -2 -9 9 -5 8 3 21 0 27
-8 8 -10 8 -14 -1 -17 -7 -2 -9 -10 -5 -17 5 -7 14 -10 21 -7 7 2 16 -2 19
-10 3 -8 10 -14 16 -14 9 0 42 -25 76 -57 7 -7 21 -13 32 -13 11 0 23 -7 26
-16 3 -8 10 -12 16 -9 5 3 24 0 42 -8 18 -8 41 -18 51 -21 10 -3 15 -10 12
-16 -3 -6 4 -10 17 -10 22 0 63 -19 43 -20 -5 0 -2 -5 8 -11 9 -5 17 -16 17
-23 0 -7 14 -28 31 -47 18 -19 29 -26 26 -17 -3 10 -2 20 2 23 14 8 32 -21 25
-39 -3 -9 -2 -16 2 -16 5 0 15 -4 23 -9 11 -7 12 -13 3 -24 -9 -11 -7 -13 11
-13 16 1 21 -4 19 -16 -2 -12 4 -18 17 -18 24 0 38 -19 21 -30 -9 -6 -7 -10 9
-15 11 -3 21 -14 21 -23 0 -10 14 -23 31 -31 17 -7 34 -23 38 -35 5 -11 11
-20 15 -18 17 6 17 0 1 -18 -15 -17 -16 -20 -3 -20 9 0 22 -8 29 -17 12 -15
12 -16 -3 -10 -12 4 -18 2 -18 -8 0 -8 7 -15 15 -15 8 0 15 -7 15 -15 0 -8 5
-15 10 -15 6 0 10 -7 10 -15 0 -8 3 -14 8 -13 4 1 19 -4 35 -10 30 -13 36 -32
10 -33 -15 0 -15 -2 2 -8 11 -5 25 -4 33 1 8 7 12 7 12 -2 0 -7 -8 -19 -17
-26 -17 -13 -17 -13 1 -14 16 0 17 -3 8 -12 -17 -17 -15 -28 6 -28 10 0 21 -3
25 -6 11 -11 -5 -34 -24 -34 -10 0 -19 -6 -19 -14 0 -8 -15 -17 -35 -20 -19
-4 -35 -10 -35 -14 0 -4 -8 -8 -17 -9 -46 -5 -89 -17 -95 -27 -6 -8 -10 -8
-15 0 -14 21 -53 27 -59 10 -8 -21 -24 -10 -24 15 0 10 -5 19 -10 19 -6 0 -10
-8 -8 -17 4 -23 -26 -25 -66 -5 -21 10 -31 11 -36 2 -4 -7 -17 -9 -34 -4 -16
4 -32 1 -42 -7 -13 -10 -17 -10 -24 1 -7 12 -10 11 -16 -4 -5 -12 -13 -16 -30
-12 -12 3 -26 1 -29 -4 -4 -6 -11 -8 -16 -5 -5 4 -12 -1 -15 -9 -7 -18 -34
-22 -34 -5 0 14 -25 6 -26 -9 -1 -7 -2 -16 -3 -22 -1 -13 -31 -13 -31 0 0 14
-22 8 -38 -10 -11 -13 -12 -12 -7 8 4 13 2 22 -4 22 -6 0 -11 -4 -11 -10 0 -5
-7 -10 -16 -10 -10 0 -13 -6 -9 -19 3 -12 0 -21 -9 -24 -10 -4 -13 -1 -9 9 3
9 -1 14 -14 14 -10 0 -25 6 -32 13 -11 10 -12 8 -7 -9 8 -25 -2 -56 -15 -48
-5 3 -12 -1 -15 -10 -6 -15 -43 -27 -101 -34 -7 -1 -13 -11 -13 -22 0 -17 -7
-20 -46 -20 -37 0 -45 -3 -40 -15 3 -9 0 -15 -8 -15 -7 0 -20 -8 -29 -17 -16
-18 -17 -21 -17 -48 0 -8 -6 -15 -14 -15 -8 0 -21 -7 -30 -15 -8 -9 -19 -15
-23 -14 -29 5 -36 -2 -17 -17 17 -14 17 -15 1 -10 -10 3 -21 6 -23 6 -2 0 -4
8 -5 18 0 9 -8 -3 -18 -28 -15 -35 -24 -45 -42 -45 -17 0 -25 -6 -27 -22 -4
-30 -22 -30 -23 0 -1 16 -2 18 -6 5 -2 -10 -13 -18 -23 -18 -34 0 -32 -20 2
-21 22 -1 26 -3 11 -6 -13 -3 -20 -10 -17 -18 3 -7 -3 -16 -13 -19 -30 -9 -71
-119 -53 -140 5 -7 2 -25 -7 -46 -9 -19 -17 -39 -17 -45 -1 -5 -9 -9 -19 -7
-12 2 -17 -4 -17 -23 0 -14 4 -24 9 -21 5 3 9 -10 8 -30 -1 -31 -3 -35 -23
-30 -28 7 -39 -7 -19 -24 23 -19 18 -38 -20 -77 l-35 -36 0 26 c0 14 5 29 10
32 5 3 10 11 10 17 0 6 -9 3 -20 -7 -12 -10 -18 -25 -15 -34 3 -8 0 -18 -7
-23 -8 -5 -9 -11 -3 -15 16 -12 11 -48 -5 -45 -8 2 -24 4 -35 4 -44 0 -64 8
-59 23 4 10 0 15 -13 15 -10 0 -28 6 -39 14 -19 13 -20 12 -22 -17 -2 -17 -5
-33 -7 -36 -3 -2 9 -11 27 -18 23 -10 33 -10 38 -2 6 8 14 8 31 -1 33 -18 33
-17 15 -35 -16 -17 -46 -14 -46 3 0 5 -18 12 -40 16 -26 4 -40 11 -40 21 0 9
-9 15 -22 14 -13 0 -17 -3 -10 -6 21 -8 13 -21 -10 -15 -21 5 -22 4 -8 -13 14
-17 13 -18 -10 -12 -14 4 -29 7 -34 7 -6 0 -1 7 10 16 18 15 18 15 -2 5 -12
-6 -24 -7 -28 -3 -4 3 -4 -1 -1 -11 14 -34 95 -56 95 -26 0 5 9 9 20 9 11 0
20 -2 20 -5 0 -13 -54 -55 -71 -55 -11 0 -29 -9 -41 -19 l-20 -20 23 6 c13 3
29 10 36 15 6 5 32 11 57 12 39 3 46 1 46 -15 0 -11 4 -19 9 -19 5 0 7 8 4 19
-3 14 2 20 24 24 15 3 30 4 31 2 2 -2 -15 -28 -38 -59 -46 -61 -82 -76 -130
-56 -18 8 -34 9 -45 3 -15 -9 -15 -11 -1 -26 21 -20 20 -31 0 -23 -13 5 -15 1
-9 -21 8 -33 16 -43 22 -25 7 19 33 14 70 -14 18 -14 39 -22 46 -18 9 5 9 4 0
-6 -16 -18 -74 -3 -80 21 -3 10 -9 16 -14 13 -14 -8 -11 -41 5 -47 21 -8 8
-53 -20 -68 -18 -9 -23 -18 -18 -32 3 -11 7 -53 9 -93 1 -41 8 -81 15 -89 6
-8 8 -20 4 -27 -5 -10 -4 -11 7 -1 16 15 49 17 49 3 0 -5 -7 -10 -15 -10 -18
0 -20 -20 -2 -21 6 -1 1 -4 -13 -8 -14 -4 -26 -15 -28 -25 -3 -12 0 -16 8 -11
9 5 10 2 6 -12 -4 -11 -1 -33 5 -49 7 -16 12 -41 13 -56 1 -14 4 -30 9 -34 4
-4 7 -20 7 -36 0 -15 5 -28 11 -28 5 0 9 -8 8 -17 -4 -24 21 -145 32 -157 5
-6 9 -16 9 -24 0 -19 94 -203 135 -265 52 -77 109 -158 120 -171 6 -6 49 -63
97 -126 47 -63 95 -124 105 -135 10 -11 35 -41 57 -65 119 -138 251 -255 387
-345 9 -5 49 -32 91 -60 87 -58 110 -71 233 -135 77 -41 117 -59 240 -111 200
-84 322 -113 615 -145 102 -11 262 -7 415 11 286 32 305 39 743 247 23 11 71
41 105 67 34 25 72 53 84 61 45 31 281 230 356 300 122 114 247 249 284 306 7
10 23 35 36 54 24 37 58 95 86 145 10 17 28 56 40 87 13 32 27 58 31 58 4 0
13 21 20 48 7 26 16 52 20 57 4 6 13 28 20 50 7 22 16 45 20 50 5 6 11 27 15
48 4 20 11 40 16 43 5 3 9 14 9 25 0 11 7 27 15 35 8 9 18 27 21 42 3 15 12
43 20 62 18 45 79 334 110 525 32 197 31 193 121 595 15 63 28 131 29 150 2
19 8 66 14 103 10 70 30 247 35 302 2 17 6 67 9 110 4 44 11 107 16 140 16
109 17 130 6 148 -7 11 -8 20 -1 25 6 4 11 18 12 32 5 77 16 144 38 230 26
101 34 133 41 165 4 17 15 41 25 55 27 40 128 390 165 575 3 17 10 38 15 47 5
9 9 26 9 38 0 12 6 36 14 53 30 66 54 180 76 357 5 41 17 125 25 185 14 94 27
245 26 295 0 8 0 40 0 70 0 30 0 60 -1 65 0 6 -3 60 -6 122 -2 65 -10 123 -18
138 -12 22 -12 31 0 53 9 20 11 43 5 86 -9 65 -5 129 9 134 5 2 6 10 3 18 -3
8 0 14 6 14 6 0 11 8 11 18 0 10 3 22 7 25 8 8 12 40 16 130 3 52 0 70 -11 76
-10 6 -11 10 -3 15 13 9 15 56 2 56 -5 0 -12 -6 -15 -12 -4 -7 -4 2 -1 21 6
42 13 50 25 31 6 -8 10 -10 10 -5 0 6 -5 17 -11 25 -8 11 -12 12 -16 3 -7 -18
-43 -16 -43 2 0 8 5 15 11 15 5 0 7 -6 3 -12 -5 -10 -4 -10 6 -1 17 16 3 35
-18 24 -9 -4 -23 -6 -29 -4 -7 3 -13 0 -13 -7 0 -6 5 -8 10 -5 6 3 10 -1 10
-9 0 -16 -32 -18 -46 -3 -4 4 -16 -5 -25 -20 -18 -27 -18 -28 3 -50 17 -19 19
-25 8 -38 -15 -18 -29 -19 -67 -4 -20 7 -24 12 -14 18 7 5 21 7 30 4 26 -7 22
27 -6 57 -13 14 -32 25 -43 25 -11 0 -19 5 -19 10 0 6 7 9 15 7 8 -2 14 4 14
13 0 11 -7 15 -22 13 -16 -2 -23 2 -22 12 1 9 -8 17 -19 17 -27 2 -32 10 -18
27 9 11 10 20 2 35 -14 26 -14 67 0 90 15 22 3 99 -13 83 -6 -6 -21 -6 -44 1
-39 12 -55 44 -30 62 22 17 9 26 -21 14 -21 -8 -24 -7 -19 7 6 15 -35 57 -59
60 -5 1 -15 2 -21 3 -7 0 -14 11 -17 22 -5 17 -12 21 -36 17 -27 -4 -30 -2
-25 18 6 24 2 28 -38 38 -21 5 -28 2 -33 -14z m105 -109 c0 -15 -32 -23 -44
-11 -8 8 -6 9 7 5 10 -4 17 -2 17 4 0 6 5 11 10 11 6 0 10 -4 10 -9z m81 -114
c-10 -9 -11 -8 -5 6 3 10 9 15 12 12 3 -3 0 -11 -7 -18z m49 -22 c0 -8 -4 -15
-9 -15 -13 0 -22 16 -14 24 11 11 23 6 23 -9z m85 -43 c-3 -3 -11 0 -18 7 -9
10 -8 11 6 5 10 -3 15 -9 12 -12z m-1325 -342 c0 -5 -5 -10 -11 -10 -5 0 -7 5
-4 10 3 6 8 10 11 10 2 0 4 -4 4 -10z m1505 -90 c-15 -16 -14 -19 12 -36 31
-21 35 -34 35 -117 0 -32 3 -55 9 -52 5 4 9 -3 9 -14 0 -11 5 -23 10 -26 16
-10 -28 -45 -46 -38 -9 3 -13 12 -9 21 4 12 3 13 -10 2 -23 -19 -30 -6 -32 63
-1 34 -4 76 -6 94 -2 17 1 29 6 26 5 -3 7 3 4 13 -3 11 -8 29 -12 42 -4 12 -3
37 1 54 l6 32 20 -23 c17 -22 17 -25 3 -41z m60 50 c3 -5 -3 -10 -14 -10 -12
0 -21 5 -21 10 0 6 6 10 14 10 8 0 18 -4 21 -10z m-5 -40 c0 -5 -4 -10 -10
-10 -5 0 -10 5 -10 10 0 6 5 10 10 10 6 0 10 -4 10 -10z m-1814 -32 c4 -6 -1
-17 -11 -24 -23 -17 -26 -14 -18 14 6 24 18 28 29 10z m594 -78 c0 -5 -7 -10
-16 -10 -8 0 -12 5 -9 10 3 6 10 10 16 10 5 0 9 -4 9 -10z m-160 -10 c0 -5 -5
-10 -11 -10 -5 0 -7 5 -4 10 3 6 8 10 11 10 2 0 4 -4 4 -10z m1425 -110 c3 -5
1 -10 -4 -10 -6 0 -11 5 -11 10 0 6 2 10 4 10 3 0 8 -4 11 -10z m-105 -85 c0
-8 -4 -15 -10 -15 -5 0 -7 7 -4 15 4 8 8 15 10 15 2 0 4 -7 4 -15z m80 -65 c0
-5 -4 -10 -10 -10 -5 0 -10 5 -10 10 0 6 5 10 10 10 6 0 10 -4 10 -10z m-926
-66 c9 -3 16 -11 16 -16 0 -6 -6 -5 -15 2 -8 6 -20 8 -26 4 -8 -4 -9 -3 -5 4
8 14 9 14 30 6z m-1874 -8 c0 -3 -4 -8 -10 -11 -5 -3 -10 -1 -10 4 0 6 5 11
10 11 6 0 10 -2 10 -4z m1920 -3 c0 -5 -5 -15 -10 -23 -8 -12 -10 -11 -10 8 0
12 5 22 10 22 6 0 10 -3 10 -7z m280 -137 c0 -3 -4 -8 -10 -11 -5 -3 -10 -1
-10 4 0 6 5 11 10 11 6 0 10 -2 10 -4z m80 -42 c0 -8 -5 -12 -10 -9 -6 4 -8
11 -5 16 9 14 15 11 15 -7z m-3091 -188 c1 -6 -5 -1 -13 9 -8 11 -12 24 -8 29
5 9 20 -17 21 -38z m735 -861 c4 -11 -1 -15 -19 -15 -26 0 -34 15 -12 23 20 9
25 8 31 -8z m-709 -104 c3 -6 -4 -9 -15 -8 -11 1 -20 5 -20 9 0 11 28 10 35
-1z m-195 -21 c0 -5 -5 -10 -11 -10 -5 0 -7 5 -4 10 3 6 8 10 11 10 2 0 4 -4
4 -10z m3043 -128 c-2 -7 0 -11 5 -10 15 3 81 -14 79 -22 -1 -4 17 -26 41 -50
23 -23 42 -49 42 -56 0 -8 4 -14 9 -14 5 0 12 -8 14 -17 3 -10 6 -2 7 17 1 19
4 28 7 20 3 -8 9 -17 13 -20 9 -6 13 -26 11 -52 -1 -11 -7 -15 -21 -11 -11 3
-20 0 -20 -6 0 -6 5 -11 10 -11 6 0 10 -5 10 -11 0 -11 -84 -8 -96 4 -4 4 -20
7 -36 7 -16 0 -27 5 -25 12 1 6 -9 14 -23 18 -15 3 -26 14 -28 27 -2 15 -13
24 -35 29 -42 9 -81 48 -74 74 3 11 1 22 -3 25 -10 6 13 54 30 65 17 10 85 -5
83 -18z m-128 -62 c3 -5 2 -10 -4 -10 -5 0 -13 5 -16 10 -3 6 -2 10 4 10 5 0
13 -4 16 -10z m-1265 -350 c0 -5 -4 -10 -10 -10 -5 0 -10 5 -10 10 0 6 5 10
10 10 6 0 10 -4 10 -10z m67 -32 c8 -6 12 -17 9 -25 -3 -7 3 -22 14 -33 11
-11 20 -17 20 -14 0 3 8 -2 18 -13 9 -10 14 -14 10 -9 -18 23 -6 28 17 6 13
-12 22 -26 20 -31 -9 -14 8 -41 24 -36 12 3 16 -4 16 -27 0 -17 -4 -37 -9 -44
-4 -7 -5 -19 -2 -27 3 -8 1 -15 -4 -15 -6 0 -8 -30 -6 -75 4 -62 2 -77 -12
-85 -16 -9 -16 -9 1 -10 9 0 17 -7 17 -15 0 -8 -6 -12 -14 -9 -7 3 -16 -1 -19
-9 -7 -18 3 -58 12 -53 4 3 13 0 21 -5 11 -6 12 -11 4 -16 -6 -5 -15 -22 -18
-40 -6 -26 -3 -34 13 -45 22 -13 29 -38 11 -38 -5 0 -10 -4 -10 -10 0 -5 14
-10 31 -10 19 0 28 -4 23 -11 -3 -6 -17 -9 -30 -6 -18 3 -24 0 -24 -14 0 -11
6 -19 13 -19 7 0 18 -20 25 -45 16 -61 15 -73 -5 -71 -17 1 -20 -10 -12 -44 2
-8 -2 -14 -8 -13 -7 2 -13 -4 -13 -12 0 -8 9 -15 20 -15 20 0 20 0 1 -36 -16
-29 -17 -40 -8 -55 7 -11 15 -19 18 -19 4 0 5 -9 2 -20 -4 -16 -11 -19 -27
-14 -11 4 -24 11 -27 16 -4 6 -9 6 -14 -1 -5 -9 -10 -9 -21 0 -11 9 -14 8 -14
-6 0 -13 -5 -16 -22 -11 -13 3 -27 6 -31 6 -5 0 -5 4 -2 10 3 6 -1 7 -10 4 -8
-4 -21 -2 -28 4 -18 14 -50 11 -69 -6 -10 -8 -18 -12 -18 -7 0 4 -6 2 -13 -4
-8 -6 -16 -8 -20 -5 -3 3 -15 0 -27 -6 -18 -10 -24 -9 -31 1 -7 12 -9 12 -9 1
0 -9 -12 -13 -37 -11 -26 2 -37 -1 -36 -9 2 -7 -2 -12 -7 -12 -6 0 -10 8 -10
17 0 13 -3 14 -12 5 -9 -9 -15 -9 -25 0 -8 6 -24 13 -36 14 -97 10 -144 18
-153 26 -8 5 -14 3 -18 -7 -4 -13 -10 -14 -26 -5 -11 6 -20 7 -20 3 0 -4 -5
-2 -12 5 -18 18 -51 15 -44 -3 3 -9 0 -15 -9 -15 -8 0 -15 4 -15 9 0 5 -13 12
-29 16 -16 3 -42 16 -59 29 -30 21 -30 24 -16 50 7 16 14 39 14 52 0 13 6 24
13 24 8 0 22 9 32 20 10 11 24 20 31 20 8 0 11 6 8 15 -4 9 0 15 8 15 9 0 26
10 40 23 19 18 35 23 66 21 32 -1 41 2 45 17 3 10 12 19 21 19 19 0 22 36 4
44 -7 3 -2 3 10 0 19 -5 23 -2 20 13 -2 10 -13 22 -26 28 -22 10 -30 25 -13
25 5 0 7 9 4 20 -4 14 1 21 21 26 21 5 25 10 20 29 -7 29 10 40 29 20 22 -22
30 -18 23 10 -5 21 -3 25 15 25 28 0 89 67 89 97 0 13 4 23 10 23 5 0 7 -7 3
-16 -5 -14 -3 -15 15 -5 17 9 20 19 18 61 -2 28 2 52 8 55 6 3 1 3 -11 1 -19
-3 -21 -1 -13 14 12 23 13 33 1 26 -5 -3 -11 5 -13 19 -3 14 -1 25 3 25 5 0 9
5 9 11 0 5 -4 8 -9 5 -13 -9 -8 27 7 42 6 7 12 21 12 30 1 23 26 55 38 48 5
-3 15 6 22 19 7 13 17 22 22 19 18 -11 48 8 48 30 0 21 3 22 62 19 34 -2 67
-8 75 -15z m73 -48 c0 -5 -4 -10 -10 -10 -5 0 -10 5 -10 10 0 6 5 10 10 10 6
0 10 -4 10 -10z m100 -196 c0 -8 -4 -12 -10 -9 -5 3 -10 10 -10 16 0 5 5 9 10
9 6 0 10 -7 10 -16z m-447 -104 c-3 -12 -8 -19 -11 -16 -5 6 5 36 12 36 2 0 2
-9 -1 -20z m-1863 -460 c0 -5 -4 -10 -10 -10 -5 0 -10 5 -10 10 0 6 5 10 10
10 6 0 10 -4 10 -10z m2360 -226 c0 -8 -4 -12 -10 -9 -5 3 -10 13 -10 21 0 8
5 12 10 9 6 -3 10 -13 10 -21z m-2713 -19 c-18 -18 -27 -19 -27 -4 0 15 34 40
38 28 2 -5 -3 -16 -11 -24z m-570 -671 c-9 -9 -27 6 -27 22 0 13 2 13 16 -1 9
-9 14 -18 11 -21z m93 -45 c-7 -11 -14 -18 -17 -15 -8 8 5 36 17 36 7 0 7 -6
0 -21z m-110 -39 c0 -5 -4 -10 -10 -10 -5 0 -10 5 -10 10 0 6 5 10 10 10 6 0
10 -4 10 -10z m70 -80 c0 -5 -4 -10 -10 -10 -5 0 -10 5 -10 10 0 6 5 10 10 10
6 0 10 -4 10 -10z m-29 -43 c-10 -9 -11 -8 -5 6 3 10 9 15 12 12 3 -3 0 -11
-7 -18z m-48 -78 c-8 -16 -20 -29 -26 -29 -33 1 -66 58 -39 67 7 3 12 -4 12
-16 0 -12 6 -21 15 -21 8 0 15 6 15 13 0 7 5 18 12 25 20 20 27 -7 11 -39z
m-53 -160 c0 -10 -4 -20 -9 -23 -10 -7 -33 42 -25 55 8 14 34 -10 34 -32z
m-50 -29 c0 -5 -4 -10 -10 -10 -5 0 -10 5 -10 10 0 6 5 10 10 10 6 0 10 -4 10
-10z m145 -29 c3 -5 1 -12 -5 -16 -5 -3 -10 1 -10 9 0 18 6 21 15 7z m-105
-137 c0 -2 -7 -4 -15 -4 -8 0 -15 4 -15 10 0 5 7 7 15 4 8 -4 15 -8 15 -10z
m44 -34 c-1 -8 -3 -21 -3 -27 -1 -7 -6 -13 -11 -13 -6 0 -8 10 -4 24 3 13 1
27 -5 30 -6 4 -11 14 -11 23 0 14 3 14 19 -3 10 -10 17 -26 15 -34z m-34 -74
c0 -3 -4 -8 -10 -11 -5 -3 -10 -1 -10 4 0 6 5 11 10 11 6 0 10 -2 10 -4z"/>
<path d="M6822 5250 c0 -14 2 -19 5 -12 2 6 2 18 0 25 -3 6 -5 1 -5 -13z"/>
<path d="M7655 7550 c-3 -5 -1 -10 4 -10 6 0 11 5 11 10 0 6 -2 10 -4 10 -3 0
-8 -4 -11 -10z"/>
<path d="M7687 7496 c-4 -10 -1 -13 8 -9 8 3 12 9 9 14 -7 12 -11 11 -17 -5z"/>
<path d="M7660 7459 c0 -5 5 -7 10 -4 6 3 10 8 10 11 0 2 -4 4 -10 4 -5 0 -10
-5 -10 -11z"/>
<path d="M7600 7450 c0 -5 5 -10 10 -10 6 0 10 5 10 10 0 6 -4 10 -10 10 -5 0
-10 -4 -10 -10z"/>
<path d="M7760 7350 c0 -5 5 -10 11 -10 5 0 7 5 4 10 -3 6 -8 10 -11 10 -2 0
-4 -4 -4 -10z"/>
<path d="M7760 7315 c0 -8 2 -15 4 -15 2 0 6 7 10 15 3 8 1 15 -4 15 -6 0 -10
-7 -10 -15z"/>
<path d="M5930 7284 c0 -8 5 -12 10 -9 6 3 10 10 10 16 0 5 -4 9 -10 9 -5 0
-10 -7 -10 -16z"/>
<path d="M7767 7248 c-6 -21 -2 -36 7 -27 10 11 16 49 8 49 -5 0 -12 -10 -15
-22z"/>
<path d="M6250 7186 c0 -24 18 -28 30 -6 9 17 8 20 -10 20 -11 0 -20 -6 -20
-14z"/>
<path d="M3530 7020 c0 -5 5 -10 10 -10 6 0 10 5 10 10 0 6 -4 10 -10 10 -5 0
-10 -4 -10 -10z"/>
<path d="M6580 6986 c0 -2 7 -9 15 -16 9 -7 15 -8 15 -2 0 5 -7 12 -15 16 -8
3 -15 4 -15 2z"/>
<path d="M6740 6890 c0 -5 5 -10 11 -10 5 0 7 5 4 10 -3 6 -8 10 -11 10 -2 0
-4 -4 -4 -10z"/>
<path d="M2635 6864 c-20 -15 -12 -17 19 -5 11 4 15 10 10 13 -5 4 -18 0 -29
-8z"/>
<path d="M2508 6673 c7 -3 16 -2 19 1 4 3 -2 6 -13 5 -11 0 -14 -3 -6 -6z"/>
<path d="M4360 6596 c0 -9 5 -16 10 -16 6 0 10 4 10 9 0 6 -4 13 -10 16 -5 3
-10 -1 -10 -9z"/>
<path d="M3930 6411 c0 -5 5 -13 10 -16 6 -3 10 -2 10 4 0 5 -4 13 -10 16 -5
3 -10 2 -10 -4z"/>
<path d="M3955 6370 c-3 -6 1 -7 9 -4 18 7 21 -7 5 -23 -8 -8 -8 -13 0 -17 6
-4 11 -1 11 8 0 8 5 16 12 18 15 5 1 28 -17 28 -8 0 -17 -4 -20 -10z"/>
<path d="M4096 6153 c-11 -11 -6 -23 9 -23 8 0 15 4 15 9 0 13 -16 22 -24 14z"/>
<path d="M3362 6118 c5 -15 28 -23 28 -10 0 5 -7 13 -16 16 -10 4 -14 1 -12
-6z"/>
<path d="M3300 6040 c0 -5 5 -10 11 -10 5 0 7 5 4 10 -3 6 -8 10 -11 10 -2 0
-4 -4 -4 -10z"/>
<path d="M3610 5662 c0 -5 7 -17 15 -28 14 -19 14 -19 15 2 0 12 -7 24 -15 28
-8 3 -15 2 -15 -2z"/>
<path d="M3569 5655 c-4 -3 -4 -17 -1 -30 3 -18 11 -25 28 -25 13 0 24 -4 24
-10 0 -5 7 -10 15 -10 8 0 15 4 15 8 0 11 -34 42 -45 42 -4 0 -13 7 -19 16 -6
8 -14 13 -17 9z"/>
<path d="M3540 5551 c0 -5 5 -13 10 -16 6 -3 10 -2 10 4 0 5 -4 13 -10 16 -5
3 -10 2 -10 -4z"/>
<path d="M1970 5520 c0 -11 5 -20 10 -20 6 0 10 9 10 20 0 11 -4 20 -10 20 -5
0 -10 -9 -10 -20z"/>
<path d="M3660 5520 c0 -5 5 -10 10 -10 6 0 10 5 10 10 0 6 -4 10 -10 10 -5 0
-10 -4 -10 -10z"/>
<path d="M1950 5199 c0 -5 5 -7 10 -4 6 3 10 8 10 11 0 2 -4 4 -10 4 -5 0 -10
-5 -10 -11z"/>
<path d="M1960 5101 c0 -17 5 -31 10 -31 6 0 10 11 10 24 0 14 -4 28 -10 31
-6 4 -10 -7 -10 -24z"/>
<path d="M2500 4980 c0 -5 5 -10 11 -10 5 0 7 5 4 10 -3 6 -8 10 -11 10 -2 0
-4 -4 -4 -10z"/>
<path d="M2018 4710 c-7 -24 -3 -38 8 -28 3 4 4 17 2 30 l-3 23 -7 -25z"/>
<path d="M1980 4422 c0 -21 46 -83 87 -119 56 -49 179 -38 233 20 34 36 38 57
13 57 -15 0 -16 2 -3 10 12 8 11 10 -7 10 -13 0 -23 -6 -23 -12 0 -10 -3 -9
-9 1 -6 8 -11 10 -15 3 -6 -10 -126 -8 -206 2 -14 2 -33 4 -42 5 -11 0 -15 7
-12 15 3 8 1 17 -5 21 -6 3 -11 -2 -11 -13z"/>
<path d="M3362 4049 c-7 -12 -10 -24 -7 -27 4 -4 11 1 16 11 6 9 17 17 25 17
8 0 12 5 9 10 -10 16 -29 11 -43 -11z"/>
<path d="M3310 4030 c0 -5 5 -10 10 -10 6 0 10 5 10 10 0 6 -4 10 -10 10 -5 0
-10 -4 -10 -10z"/>
<path d="M3072 3858 c-7 -7 -12 -16 -12 -21 0 -5 7 -1 16 8 9 9 14 18 12 20
-2 3 -10 -1 -16 -7z"/>
<path d="M2950 3780 c0 -5 5 -10 10 -10 6 0 10 5 10 10 0 6 -4 10 -10 10 -5 0
-10 -4 -10 -10z"/>
<path d="M2830 3660 c-13 -8 -13 -10 2 -10 9 0 20 5 23 10 8 13 -5 13 -25 0z"/>
<path d="M2470 3591 c0 -5 7 -12 16 -15 24 -9 28 -7 14 9 -14 17 -30 20 -30 6z"/>
<path d="M2308 3406 c-3 -14 -1 -31 3 -38 6 -8 9 1 9 25 0 42 -6 48 -12 13z"/>
<path d="M2475 3340 c-3 -5 -4 -10 -1 -10 2 0 12 -3 20 -6 12 -5 15 -2 10 10
-7 18 -20 21 -29 6z"/>
<path d="M2423 3334 c-9 -4 -9 -12 -2 -32 18 -46 19 -61 3 -55 -14 5 -16 0
-16 -37 0 -36 2 -40 18 -40 10 0 14 -6 11 -15 -4 -8 -1 -17 5 -21 7 -5 9 2 6
20 -3 14 -1 26 3 26 5 0 9 5 9 11 0 7 -9 9 -21 6 -13 -3 -19 -1 -16 6 2 7 21
11 43 11 21 -1 31 0 22 3 -21 5 -24 23 -5 24 6 0 2 4 -10 9 -13 5 -23 16 -23
25 0 8 -5 15 -10 15 -6 0 -8 11 -4 25 3 14 5 25 3 24 -2 0 -9 -3 -16 -5z"/>
<path d="M2513 3290 c-3 -11 -10 -20 -16 -20 -7 0 -6 -5 2 -12 10 -11 16 -8
31 12 24 31 25 40 4 40 -9 0 -18 -9 -21 -20z"/>
<path d="M2382 3281 c4 -13 18 -16 19 -4 0 4 -5 9 -11 12 -7 2 -11 -2 -8 -8z"/>
<path d="M2705 3250 c3 -5 8 -10 11 -10 2 0 4 5 4 10 0 6 -5 10 -11 10 -5 0
-7 -4 -4 -10z"/>
<path d="M2335 3200 c3 -5 8 -10 11 -10 2 0 4 5 4 10 0 6 -5 10 -11 10 -5 0
-7 -4 -4 -10z"/>
<path d="M2576 3184 c-27 -27 -10 -66 20 -46 16 10 22 54 8 59 -7 2 -19 -4
-28 -13z"/>
<path d="M2360 3180 c0 -5 5 -10 10 -10 6 0 10 5 10 10 0 6 -4 10 -10 10 -5 0
-10 -4 -10 -10z"/>
<path d="M2355 3140 c11 -5 27 -9 35 -9 9 0 8 4 -5 9 -11 5 -27 9 -35 9 -9 0
-8 -4 5 -9z"/>
<path d="M2538 3073 c6 -2 18 -2 25 0 6 3 1 5 -13 5 -14 0 -19 -2 -12 -5z"/>
<path d="M2330 3041 c0 -5 5 -13 10 -16 6 -3 10 -2 10 4 0 5 -4 13 -10 16 -5
3 -10 2 -10 -4z"/>
<path d="M2450 2950 c0 -11 5 -20 10 -20 6 0 10 9 10 20 0 11 -4 20 -10 20 -5
0 -10 -9 -10 -20z"/>
<path d="M2415 2936 c-18 -13 -19 -15 -3 -21 25 -10 36 -3 29 18 -6 16 -9 16
-26 3z"/>
<path d="M2350 2920 c0 -5 5 -10 10 -10 6 0 10 5 10 10 0 6 -4 10 -10 10 -5 0
-10 -4 -10 -10z"/>
</g>
</svg>
